# xmcd CD database file
#
# Track frame offsets:
#	150
#	11805
#	44240
#	67370
#	83545
#	99842
#	124020
#	147210
#
# Disc length: 2244 seconds
#
# Revision: 0
# Processed by: cddbd v1.4PL0 Copyright (c) Steve Scherf et al.
# Submitted via: CDex 1.50Beta5
#
DISCID=6d08c208
DTITLE=Count Basie - Basie in Sweden
DYEAR=1900
DGENRE=Jazz
TTITLE0=Little Pony
TTITLE1=Plymouth Rock
TTITLE2=Backwater Blues
TTITLE3=Who Me
TTITLE4=April in Paris
TTITLE5=Backstage Blues
TTITLE6=Good Time Blues
TTITLE7=Peace Pipe
EXTD=
EXTT0=
EXTT1=
EXTT2=
EXTT3=
EXTT4=
EXTT5=
EXTT6=
EXTT7=
PLAYORDER=
